<svg xmlns="http://www.w3.org/2000/svg" viewBox="0 0 980.6 956.4"><defs><style>.cls-1{fill:#fff;}</style></defs><g id="Capa_2" data-name="Capa 2"><g id="Capa_1-2" data-name="Capa 1"><path id="path47-5" class="cls-1" d="M493.6,0A105.7,105.7,0,1,0,599.4,105.7v-.2A105.58,105.58,0,0,0,493.6,0ZM145,244.1c-18.6.1-37.5,1.1-55.2,5.6-11.7,3-23,7.8-30.3,15.4-9.2,9.5-10.4,22.3-5.9,33.3,4,9.7,14.8,16.9,26.8,21.1,25.9,8.9,54.6,10.7,81.8,16.3,5,1.2,10.6,2.6,13.7,6,3.2,4.1,1.3,9.7-4,12.2-8.8,4.5-20.1,4.5-30.4,4.4-9.4-.4-19.7-1.2-27.2-5.9-5.5-3.4-6.5-9.1-5.2-14.1H48.5c-.2,9.2,1.6,18.9,8.4,26.8,5.6,6.8,14.8,11.5,24.6,14.4,15.7,4.6,32.7,6,49.4,6.4,22.7.4,45.8-.3,67.6-5.4,13-3.2,25.8-8.3,34.1-16.6,14.8-14.8,11.3-38.3-8.3-49.8-9.8-5.7-21.5-9.2-33.4-11.5-17.5-3.6-35.3-6.3-52.9-9.2-6.2-1.2-12.8-2.3-18-5.2-5.5-2.9-5.9-9.8-.3-12.9,7.2-4.1,16.8-4,25.4-4,9.1.2,19,.7,26.5,5a11.2,11.2,0,0,1,5.9,10.1l57.6-.1c-.2-7.3-1.6-14.9-6.9-21.2-6.2-7.8-17.1-12.7-28.3-15.5-17.7-4.6-36.4-5.5-54.9-5.6Zm125,4.3V386.1H438.1v-30H331.7V329.4h94.9V300.1H331.7V278.2H434.3l-.1-29.7Zm276.9.1H469V386.2h59V293.5l80.8,92.6,81,.1V248.5H630.7l.1,92Zm248.1.2s-63.6,91.9-95.6,137.7h61.9l14.9-24.8h95.7l13.9,24.9h68.8L863.4,248.7Zm31,32.9,29.4,49.9-60.7.1ZM0,425.1l.5,75,280.1-1c14.3,3.1,22.6,12.4,19.7,33.5L128,834.2l56.1,52.5L451,425.1Zm534.6.6L797,885.3l58-52.1L680.7,532.4c-2.9-21.2,5.4-30.6,19.7-33.7l280.2,1-.1-73.7Zm-44.3,76.1L244.2,924.2l65.4,31.9L473.8,678.5c5.7-4.6,11.4-7.1,17.1-7.3,6-.2,12.2,2,18.3,6.8L673,956.4l67.4-35.2Z"/></g></g></svg>